<svg width="24" height="24" viewBox="0 0 24 24" fill="none" xmlns="http://www.w3.org/2000/svg">
<g clip-path="url(#clip0_2810_14680)">
<path d="M21.8202 4.73725C21.5624 4.42782 21.2396 4.17895 20.8747 4.00833C20.5099 3.83771 20.1119 3.74951 19.7092 3.75H4.8885L4.85 3.42825C4.77121 2.75947 4.44977 2.14284 3.94662 1.69527C3.44346 1.2477 2.79358 1.00031 2.12017 1L1.91667 1C1.67355 1 1.44039 1.09658 1.26849 1.26849C1.09658 1.44039 1 1.67355 1 1.91667C1 2.15978 1.09658 2.39294 1.26849 2.56485C1.44039 2.73676 1.67355 2.83333 1.91667 2.83333H2.12017C2.34469 2.83336 2.56139 2.91579 2.72917 3.06499C2.89696 3.21419 3.00415 3.41977 3.03042 3.64275L4.29175 14.3678C4.4227 15.4831 4.9586 16.5116 5.79775 17.258C6.63689 18.0044 7.72087 18.4167 8.84392 18.4167H18.4167C18.6598 18.4167 18.8929 18.3201 19.0648 18.1482C19.2368 17.9763 19.3333 17.7431 19.3333 17.5C19.3333 17.2569 19.2368 17.0237 19.0648 16.8518C18.8929 16.6799 18.6598 16.5833 18.4167 16.5833H8.84392C8.27655 16.5817 7.72357 16.4047 7.26077 16.0765C6.79798 15.7483 6.44804 15.2849 6.25892 14.75H17.1856C18.2602 14.7501 19.3006 14.3725 20.1252 13.6834C20.9497 12.9943 21.5059 12.0373 21.6965 10.9798L22.4161 6.98858C22.4879 6.59259 22.4718 6.18565 22.3688 5.79658C22.2658 5.40752 22.0786 5.04587 21.8202 4.73725ZM20.6167 6.66317L19.8962 10.6543C19.7817 11.2896 19.4474 11.8643 18.9519 12.2779C18.4563 12.6915 17.8311 12.9176 17.1856 12.9167H5.96742L5.10483 5.58333H19.7092C19.8438 5.58253 19.977 5.6114 20.0992 5.6679C20.2215 5.7244 20.3298 5.80713 20.4164 5.91022C20.503 6.01331 20.5659 6.13422 20.6005 6.26436C20.6351 6.3945 20.6406 6.53066 20.6167 6.66317Z" fill="white"/>
<path d="M7.41634 22.9999C8.42886 22.9999 9.24967 22.1791 9.24967 21.1666C9.24967 20.1541 8.42886 19.3333 7.41634 19.3333C6.40382 19.3333 5.58301 20.1541 5.58301 21.1666C5.58301 22.1791 6.40382 22.9999 7.41634 22.9999Z" fill="white"/>
<path d="M16.5833 22.9999C17.5959 22.9999 18.4167 22.1791 18.4167 21.1666C18.4167 20.1541 17.5959 19.3333 16.5833 19.3333C15.5708 19.3333 14.75 20.1541 14.75 21.1666C14.75 22.1791 15.5708 22.9999 16.5833 22.9999Z" fill="white"/>
</g>
<defs>
<clipPath id="clip0_2810_14680">
<rect width="22" height="22" fill="white" transform="translate(1 1)"/>
</clipPath>
</defs>
</svg>
