<svg width="24" height="24" viewBox="0 0 24 24" fill="none" xmlns="http://www.w3.org/2000/svg">
<g clip-path="url(#clip0_2810_15711)">
<path d="M22.0833 11.0833H1.91667C1.41041 11.0833 1 11.4937 1 11.9999C1 12.5062 1.41041 12.9166 1.91667 12.9166H22.0833C22.5896 12.9166 23 12.5062 23 11.9999C23 11.4937 22.5896 11.0833 22.0833 11.0833Z" fill="white"/>
<path d="M22.0833 4.66675H1.91667C1.41041 4.66675 1 5.07715 1 5.58341C1 6.08967 1.41041 6.50008 1.91667 6.50008H22.0833C22.5896 6.50008 23 6.08967 23 5.58341C23 5.07715 22.5896 4.66675 22.0833 4.66675Z" fill="white"/>
<path d="M22.0833 17.5H1.91667C1.41041 17.5 1 17.9104 1 18.4167C1 18.9229 1.41041 19.3333 1.91667 19.3333H22.0833C22.5896 19.3333 23 18.9229 23 18.4167C23 17.9104 22.5896 17.5 22.0833 17.5Z" fill="white"/>
</g>
<defs>
<clipPath id="clip0_2810_15711">
<rect width="22" height="22" fill="white" transform="translate(1 1)"/>
</clipPath>
</defs>
</svg>
