<svg width="98" height="34" viewBox="0 0 98 34" fill="none" xmlns="http://www.w3.org/2000/svg">
<path d="M3.27128 33.5907C2.56097 33.31 2.01368 32.9123 1.61776 32.3977C1.22185 31.8831 1.00061 31.2515 0.954027 30.5147L0.942383 30.3743H3.65555L3.66719 30.4562C3.72542 30.7018 3.84186 30.924 4.03982 31.1111C4.23777 31.2983 4.48231 31.4386 4.78506 31.5439C5.08782 31.6492 5.42551 31.6959 5.79813 31.6959C6.1824 31.6959 6.52009 31.6492 6.79956 31.5439C7.07903 31.4386 7.28863 31.2983 7.45165 31.1111C7.61467 30.924 7.68454 30.7252 7.68454 30.4796V30.4679C7.68454 30.1404 7.54481 29.8948 7.26534 29.7076C6.98587 29.5322 6.50845 29.3802 5.83307 29.2515L4.65697 29.0176C3.51581 28.8071 2.65412 28.4211 2.06025 27.8597C1.46638 27.2983 1.17527 26.5848 1.17527 25.6959V25.6843C1.17527 24.9474 1.37323 24.3041 1.76914 23.7544C2.16505 23.2047 2.7007 22.7837 3.38773 22.4796C4.07475 22.1755 4.85493 22.0234 5.72827 22.0234C6.68312 22.0234 7.50987 22.1638 8.18525 22.4562C8.86063 22.7369 9.38464 23.1462 9.74562 23.6609C10.1066 24.1755 10.3162 24.7837 10.3511 25.4854L10.3628 25.6492H7.63796L7.62632 25.5556C7.59138 25.2983 7.49823 25.0761 7.33521 24.9006C7.17218 24.7252 6.95094 24.5731 6.68312 24.4796C6.41529 24.386 6.10089 24.3275 5.75156 24.3275C5.39058 24.3275 5.09946 24.3743 4.84329 24.4796C4.58711 24.5848 4.4008 24.7135 4.27271 24.8889C4.14462 25.0644 4.07475 25.2632 4.07475 25.4737V25.4854C4.07475 25.7895 4.21448 26.0351 4.49395 26.2223C4.77342 26.4094 5.22755 26.5497 5.84471 26.6667L7.0208 26.8889C8.24348 27.1228 9.1401 27.4971 9.72233 28.0234C10.3046 28.5497 10.5957 29.2749 10.5957 30.1989V30.2106C10.5957 30.9825 10.4094 31.6492 10.0251 32.2106C9.64081 32.772 9.09352 33.2164 8.37157 33.5205C7.64961 33.8246 6.78792 33.9766 5.7632 33.9766C4.79671 34 3.96995 33.8597 3.27128 33.5907Z" fill="white"/>
<path d="M11.9346 22.2446H14.8573V33.7768H11.9346V22.2446ZM14.7758 27.3206H14.9272L18.8398 22.2563H21.9838L17.8965 27.4727H17.2095L14.7758 30.6423V27.3206ZM15.2882 28.3382L17.4075 26.4552L22.205 33.7768H18.7699L15.2882 28.3382Z" fill="white"/>
<path d="M23.1014 22.2446H25.5817L31.1361 30.2914L29.0052 28.8879H30.2162V22.2329H33.1273V33.7651H30.6703L25.0926 25.6364L27.2003 27.0399H26.0009V33.7651H23.0781V22.2446H23.1014Z" fill="white"/>
<path d="M34.8857 22.2446H42.7574V24.6072H37.8085V26.8879H42.4663V29.0984H37.8085V31.4376H42.7574V33.8002H34.8857V22.2446Z" fill="white"/>
<path d="M47.0667 24.6072H43.8994V22.2446H53.1451V24.6072H49.9895V33.7885H47.0667V24.6072Z" fill="white"/>
<path d="M54.1807 31.9171L59.6419 24.6657V24.6072H54.2738V22.2446H63.077V24.1043L57.6391 31.3674V31.4259H63.2517V33.7885H54.1807V31.9171Z" fill="white"/>
<path d="M64.7891 22.2446H72.6607V24.6072H67.7118V26.8879H72.3696V29.0984H67.7118V31.4376H72.6607V33.8002H64.7891V22.2446Z" fill="white"/>
<path d="M74.3027 22.2446H79.2749C80.2065 22.2446 80.9867 22.3967 81.6387 22.6891C82.2908 22.9815 82.7799 23.4259 83.1176 23.9873C83.4553 24.5487 83.6299 25.2505 83.6299 26.0692V26.0809C83.6299 26.8177 83.4553 27.4844 83.0943 28.0809C82.7333 28.6774 82.2675 29.0984 81.6737 29.3674L83.9676 33.7768H80.6839L78.716 29.8002C78.7043 29.8002 78.6811 29.8002 78.6578 29.8002C78.6345 29.8002 78.6112 29.8002 78.5879 29.8002H77.2371V33.7768H74.3144V22.2446H74.3027ZM78.9605 27.6832C79.4845 27.6832 79.8921 27.5429 80.1948 27.2505C80.4976 26.9581 80.649 26.5721 80.649 26.0809V26.0692C80.649 25.578 80.4976 25.192 80.1832 24.8996C79.8688 24.6072 79.4612 24.4552 78.9372 24.4552H77.2255V27.6715H78.9605V27.6832Z" fill="white"/>
<path d="M87.4372 33.263C86.5871 32.7718 85.935 32.0934 85.4693 31.1928C85.0035 30.3039 84.7822 29.2396 84.7822 28.0115V27.9999C84.7822 26.7718 85.0151 25.7191 85.4809 24.8303C85.9467 23.9414 86.5988 23.2513 87.4488 22.7718C88.2989 22.2922 89.3003 22.0466 90.4531 22.0466C91.6175 22.0466 92.6306 22.2922 93.4807 22.7718C94.3307 23.2513 94.9828 23.9414 95.4486 24.8303C95.9144 25.7191 96.1356 26.7835 96.1356 27.9999V28.0115C96.1356 29.2396 95.9027 30.2922 95.4486 31.1928C94.9944 32.0817 94.3424 32.7718 93.4923 33.263C92.6423 33.7542 91.6408 33.9882 90.4647 33.9882C89.2887 33.9999 88.2872 33.7542 87.4372 33.263ZM91.897 31.1344C92.2929 30.842 92.6073 30.4326 92.8286 29.9063C93.0498 29.38 93.1546 28.7484 93.1546 28.0349V28.0232C93.1546 27.2981 93.0498 26.6665 92.8286 26.1402C92.6073 25.6139 92.2929 25.2045 91.897 24.9121C91.5011 24.6197 91.012 24.4794 90.4647 24.4794C89.9291 24.4794 89.4633 24.6197 89.0558 24.9121C88.6482 25.1928 88.3338 25.6022 88.1126 26.1285C87.8913 26.6548 87.7865 27.2864 87.7865 28.0115V28.0232C87.7865 28.7484 87.8913 29.38 88.1126 29.9063C88.3338 30.4326 88.6482 30.842 89.0441 31.1344C89.44 31.4268 89.9175 31.5671 90.4647 31.5671C91.012 31.5671 91.4895 31.4151 91.897 31.1344Z" fill="white"/>
<path d="M0 5.71922C0 5.71922 22.1245 18.5847 50.0713 5.71922C78.018 -7.14628 97.8137 5.71922 97.8137 5.71922" fill="white"/>
</svg>
